<mxfile host="app.diagrams.net" agent="Mozilla/5.0 (Windows NT 10.0; Win64; x64) AppleWebKit/537.36 (KHTML, like Gecko) Chrome/132.0.0.0 Safari/537.36 OPR/117.0.0.0" version="26.1.1">
  <diagram name="Page-1" id="PaJXEDbQZSX089HYSXim">
    <mxGraphModel dx="1236" dy="565" grid="1" gridSize="10" guides="1" tooltips="1" connect="1" arrows="1" fold="1" page="1" pageScale="1" pageWidth="850" pageHeight="1100" math="0" shadow="0">
      <root>
        <mxCell id="0" />
        <mxCell id="1" parent="0" />
        <mxCell id="ARynIM5nl8zsYz3yVap9-9" style="edgeStyle=orthogonalEdgeStyle;rounded=0;orthogonalLoop=1;jettySize=auto;html=1;entryX=0.5;entryY=0;entryDx=0;entryDy=0;" edge="1" parent="1" source="ARynIM5nl8zsYz3yVap9-1" target="ARynIM5nl8zsYz3yVap9-7">
          <mxGeometry relative="1" as="geometry" />
        </mxCell>
        <mxCell id="ARynIM5nl8zsYz3yVap9-1" value="Minnesota NWI" style="rounded=1;whiteSpace=wrap;html=1;" vertex="1" parent="1">
          <mxGeometry x="50" y="50" width="120" height="60" as="geometry" />
        </mxCell>
        <mxCell id="ARynIM5nl8zsYz3yVap9-6" value="" style="edgeStyle=orthogonalEdgeStyle;rounded=0;orthogonalLoop=1;jettySize=auto;html=1;" edge="1" parent="1" source="ARynIM5nl8zsYz3yVap9-2" target="ARynIM5nl8zsYz3yVap9-5">
          <mxGeometry relative="1" as="geometry" />
        </mxCell>
        <mxCell id="ARynIM5nl8zsYz3yVap9-2" value="Soil Survey Geographic Database (SSURGO)" style="rounded=1;whiteSpace=wrap;html=1;" vertex="1" parent="1">
          <mxGeometry x="50" y="150" width="120" height="60" as="geometry" />
        </mxCell>
        <mxCell id="ARynIM5nl8zsYz3yVap9-8" value="" style="edgeStyle=orthogonalEdgeStyle;rounded=0;orthogonalLoop=1;jettySize=auto;html=1;" edge="1" parent="1" source="ARynIM5nl8zsYz3yVap9-5" target="ARynIM5nl8zsYz3yVap9-7">
          <mxGeometry relative="1" as="geometry" />
        </mxCell>
        <mxCell id="ARynIM5nl8zsYz3yVap9-5" value="Extract polygons where Histosol soil &amp;gt;=85% area" style="ellipse;whiteSpace=wrap;html=1;rounded=1;" vertex="1" parent="1">
          <mxGeometry x="210" y="125" width="120" height="110" as="geometry" />
        </mxCell>
        <mxCell id="ARynIM5nl8zsYz3yVap9-11" value="" style="edgeStyle=orthogonalEdgeStyle;rounded=0;orthogonalLoop=1;jettySize=auto;html=1;" edge="1" parent="1" source="ARynIM5nl8zsYz3yVap9-7" target="ARynIM5nl8zsYz3yVap9-10">
          <mxGeometry relative="1" as="geometry" />
        </mxCell>
        <mxCell id="ARynIM5nl8zsYz3yVap9-7" value="Intersect qualifying polygons with wetland land cover from MNNWI data" style="ellipse;whiteSpace=wrap;html=1;rounded=1;" vertex="1" parent="1">
          <mxGeometry x="365" y="125" width="120" height="110" as="geometry" />
        </mxCell>
        <mxCell id="ARynIM5nl8zsYz3yVap9-15" style="edgeStyle=orthogonalEdgeStyle;rounded=0;orthogonalLoop=1;jettySize=auto;html=1;" edge="1" parent="1" source="ARynIM5nl8zsYz3yVap9-10" target="ARynIM5nl8zsYz3yVap9-13">
          <mxGeometry relative="1" as="geometry" />
        </mxCell>
        <mxCell id="ARynIM5nl8zsYz3yVap9-10" value="Areas classified as peatland for purposes of study" style="rounded=1;whiteSpace=wrap;html=1;" vertex="1" parent="1">
          <mxGeometry x="520" y="150" width="120" height="60" as="geometry" />
        </mxCell>
        <mxCell id="ARynIM5nl8zsYz3yVap9-14" value="" style="edgeStyle=orthogonalEdgeStyle;rounded=0;orthogonalLoop=1;jettySize=auto;html=1;" edge="1" parent="1" source="ARynIM5nl8zsYz3yVap9-12" target="ARynIM5nl8zsYz3yVap9-13">
          <mxGeometry relative="1" as="geometry" />
        </mxCell>
        <mxCell id="ARynIM5nl8zsYz3yVap9-12" value="Minnesota Buffer Protection Public Ditch Features" style="rounded=1;whiteSpace=wrap;html=1;" vertex="1" parent="1">
          <mxGeometry x="50" y="260" width="120" height="60" as="geometry" />
        </mxCell>
        <mxCell id="ARynIM5nl8zsYz3yVap9-13" value="Intersect for estimate of public ditches within peatlands" style="ellipse;whiteSpace=wrap;html=1;rounded=1;" vertex="1" parent="1">
          <mxGeometry x="530" y="240" width="100" height="100" as="geometry" />
        </mxCell>
      </root>
    </mxGraphModel>
  </diagram>
</mxfile>
